<?xml version="1.0" encoding="iso-8859-1"?>
<!-- Generator: Adobe Illustrator 19.0.0, SVG Export Plug-In . SVG Version: 6.00 Build 0)  -->
<svg version="1.1" id="Layer_1" xmlns="http://www.w3.org/2000/svg" xmlns:xlink="http://www.w3.org/1999/xlink" x="0px" y="0px"
	 viewBox="0 0 512 512" style="enable-background:new 0 0 512 512;fill:#fff" xml:space="preserve">
<g>
	<g>
		<path d="M256,0C114.608,0,0,114.608,0,256s114.608,256,256,256s256-114.608,256-256S397.392,0,256,0z M256,496
			C123.664,496,16,388.336,16,256S123.664,16,256,16s240,107.664,240,240S388.336,496,256,496z"/>
	</g>
</g>
<g>
	<g>
		<path d="M256,98.56c-33.216,0-60.256,27.024-60.256,60.256S222.784,219.04,256,219.04s60.24-27.008,60.24-60.24
			S289.216,98.56,256,98.56z M256,203.056c-24.4,0-44.256-19.84-44.256-44.24C211.76,134.4,231.6,114.56,256,114.56
			c24.384,0,44.24,19.84,44.24,44.256C300.24,183.2,280.4,203.056,256,203.056z"/>
	</g>
</g>
<g>
	<g>
		<path d="M316.032,239.44l-3.872-1.168L256,280.608l-56.176-42.336l-3.872,1.168C120,262.224,120.064,339.68,120.08,340.448
			l0.096,7.904h271.648l0.096-7.904C391.92,339.664,392,262.224,316.032,239.44z M136.656,332.352
			c2.16-17.664,12.32-60.064,60.096-76.384L256,300.64l59.248-44.672c48.256,16.432,58.128,58.672,60.144,76.384H136.656z"/>
	</g>
</g>
<g>
</g>
<g>
</g>
<g>
</g>
<g>
</g>
<g>
</g>
<g>
</g>
<g>
</g>
<g>
</g>
<g>
</g>
<g>
</g>
<g>
</g>
<g>
</g>
<g>
</g>
<g>
</g>
<g>
</g>
</svg>
