<svg xmlns="http://www.w3.org/2000/svg" viewBox="0 0 1659 1095"><defs><style>.cls-1{fill:#1b4168;}.cls-2{fill:#1c738e;}.cls-3{fill:#fff;}.cls-4{fill:#37587b;}.cls-5{fill:#3dacd7;}.cls-6,.cls-7{fill:#51c2e5;}.cls-7{opacity:0;}</style></defs><title>boat-logo</title><g id="Layer_3" data-name="Layer 3"><path class="cls-2" d="M642.29,1034.72c-46.69-11.41-104.93-39.88-126.86-50.59-2.41-1.18-4.28-2.1-5.53-2.69l-9-4.24,4.18-9A121.86,121.86,0,0,0,397.48,795.08c-1,0-2,0-3,0a120.54,120.54,0,0,0-52.63,12l-9.46,4.54-4.08-9.65c-.3-.71-1.82-3.77-3.43-7-11.15-22.44-40.74-82-52.07-126.92l-2.16-8.53,8.19-3.22a121.87,121.87,0,0,0,.46-226.59l-8.16-3.25,2.18-8.52A502.37,502.37,0,0,1,328.83,285l4.7-7.85,8.24,4a120.58,120.58,0,0,0,52.9,12.12c1,0,2,0,3,0A122,122,0,0,0,516.5,168.53a120.71,120.71,0,0,0-11.43-48.67l-3.88-8.29,7.91-4.6A502.09,502.09,0,0,1,642.18,53.29l8.7-2.13L654,59.58a122.15,122.15,0,0,0,114.39,80.1c1,0,2,0,3,0A121.56,121.56,0,0,0,881.94,62.07l3.25-8.35L893.85,56a502.69,502.69,0,0,1,134.25,58.09l7.27,4.5-3.32,7.89a121.84,121.84,0,0,0,156.14,160.9l8-3.08,4.27,7.41a502.14,502.14,0,0,1,53.26,133.08l2,8.07-7.57,3.4a121.82,121.82,0,0,0-1.41,221.62l7.53,3.5-2.06,8a502.09,502.09,0,0,1-51.83,127l-4.26,7.38-8-3.05a121.91,121.91,0,0,0-156,160.75l3.8,9.11-150.21,65-3.78-9.62a121.72,121.72,0,0,0-110.52-77.25c-1,0-2,0-3,0a122.27,122.27,0,0,0-114.29,79.76l-3.09,8.38Z" transform="translate(0 6)"/><path class="cls-3" d="M644.56,63a131.84,131.84,0,0,0,123.78,86.68c1.07,0,2.15,0,3.23,0A131.85,131.85,0,0,0,891.26,65.7a492.62,492.62,0,0,1,131.58,56.94,131.83,131.83,0,0,0,168.94,174.11A491.91,491.91,0,0,1,1244,427.18,131.82,131.82,0,0,0,1242.45,667a492.39,492.39,0,0,1-50.79,124.47,131.9,131.9,0,0,0-168.85,173.93l-131.66,56.93a131.9,131.9,0,0,0-119.57-83.57c-1.09,0-2.16,0-3.24,0A131.92,131.92,0,0,0,644.66,1025c-51.12-12.5-118.66-47-130.48-52.61A131.86,131.86,0,0,0,397.72,785.08c-1.07,0-2.14,0-3.2,0a131.21,131.21,0,0,0-57,13c-2.55-6-41.89-80.45-55-132.48A131.86,131.86,0,0,0,283,420.37a492.44,492.44,0,0,1,54.37-130.21,131.22,131.22,0,0,0,57.27,13.12c1.06,0,2.14,0,3.21,0A131.83,131.83,0,0,0,514.13,115.61,492.18,492.18,0,0,1,644.56,63m12.65-23.69L639.8,43.57A511.74,511.74,0,0,0,504.08,98.33l-15.82,9.19L496,124.1a111.83,111.83,0,0,1-98.61,159.15l-2.73,0a110.52,110.52,0,0,1-48.56-11.13l-16.47-8-9.4,15.71a512.21,512.21,0,0,0-56.58,135.5l-4.38,17,16.34,6.52a111.87,111.87,0,0,1-.42,208l-16.37,6.45,4.3,17.06c11.59,45.92,41.54,106.21,52.81,128.91,1.4,2.82,2.84,5.73,3.21,6.55l8.14,19.23,18.91-9.08a110.58,110.58,0,0,1,48.31-11c.9,0,1.82,0,2.72,0A111.86,111.86,0,0,1,496,964l-8.36,18,17.94,8.5c1.16.55,3,1.47,5.42,2.63,22.19,10.85,81.14,39.66,128.87,51.33l17.35,4.24,6.17-16.76a112.24,112.24,0,0,1,104.91-73.21c.92,0,1.84,0,2.75,0a111.71,111.71,0,0,1,101.45,70.91l7.57,19.24,19-8.21,131.66-56.93,18.12-7.84-7.61-18.22a111.9,111.9,0,0,1,143.25-147.56l15.93,6.1,8.53-14.77a512.14,512.14,0,0,0,52.86-129.52l4.11-16.08-15-7a111.82,111.82,0,0,1,1.29-203.43l15.14-6.8-3.9-16.14a511.8,511.8,0,0,0-54.32-135.73l-8.55-14.82-16,6.16A111.87,111.87,0,0,1,1041.27,130.4l6.64-15.77-14.55-9A512.41,512.41,0,0,0,896.44,46.39l-17.31-4.65-6.51,16.7a111.59,111.59,0,0,1-101.53,71.21c-.91,0-1.84,0-2.75,0a112.11,112.11,0,0,1-105-73.53l-6.14-16.84Z" transform="translate(0 6)"/></g><g id="Layer_2" data-name="Layer 2"><polygon class="cls-1" points="461 570 763 476 763 878 595 842 461 570"/><polygon class="cls-4" points="1065 570 763 476 763 878 931 842 1065 570"/><rect class="cls-1" x="690" y="217" width="72.98" height="23"/><rect class="cls-4" x="763.02" y="217" width="72.98" height="23"/><rect class="cls-5" x="667" y="258" width="96" height="29"/><rect class="cls-6" x="763" y="258" width="96" height="29"/><polygon class="cls-1" points="999 344.22 524 344.22 506 324.5 506 304.78 1018 305 1018 324.5 999 344.22"/><polygon class="cls-4" points="999 344.22 763 344.22 763 305 1018 305 1018 324.5 999 344.22"/><path class="cls-5" d="M552,359V516l211-67,212,67V359Zm133,66H587V385h98Zm126,0H713V385h98Zm130,0H843V385h98Z" transform="translate(0 6)"/><path class="cls-7" d="M763,359v26h48v40H763v24l212,67V359Zm178,66H843V385h98Z" transform="translate(0 6)"/></g></svg>